# xmcd
#
# Track frame offsets: 
#        150
#        42199
#        62068
#        81533
#        114100
#        145747
#        159287
#        179928
#        206405
#        234920
#        258644
#
# Disc length: 3765 seconds
#
# Revision: 0
# Processed by: cddbd v1.5.2PL0 Copyright (c) Steve Scherf et al.
# Submitted via: ExactAudioCopy v0.95b4
#
DISCID=950eb30b
DTITLE=The Darcy Perry Band - Live At Hamilton Gardens 2006 Disc 1
DYEAR=2006
DGENRE=
TTITLE0=Its All Good
TTITLE1=Dont Hold Back
TTITLE2=Peddlers Blues
TTITLE3=Ten Thousand Miles From Norway
TTITLE4=Save The World
TTITLE5=Its All Downhill From Here
TTITLE6=Before I Let You Down
TTITLE7=Darcy's Blues
TTITLE8=Reaper Man
TTITLE9=Mary Jane
TTITLE10=Mary Jane (Reprise)
EXTD=
EXTT0=
EXTT1=
EXTT2=
EXTT3=
EXTT4=
EXTT5=
EXTT6=
EXTT7=
EXTT8=
EXTT9=
EXTT10=
PLAYORDER=
